<svg id="Layer_1" data-name="Layer 1" xmlns="http://www.w3.org/2000/svg" viewBox="0 0 270 70"><defs><style>.cls-1{fill:#6c00ff;}.cls-2{fill:#3c79f5;}</style></defs><path class="cls-1" d="M47.06,15a3.17,3.17,0,0,1,4.49,0L68.2,31.69a.37.37,0,0,0,.64-.3c0-.45-.09-.9-.15-1.34a3.33,3.33,0,0,0-1-1.88L51.55,12a3.17,3.17,0,0,0-4.49,0L19.41,39.64a2.82,2.82,0,0,1-4.32-.4,2.93,2.93,0,0,1,.44-3.7L47.69,3.39A33.83,33.83,0,1,0,25.48,67.23a1,1,0,0,0,1.27-1V36.92a3.77,3.77,0,0,1,1.12-2.68Z"/><path class="cls-1" d="M60.87,50a12.88,12.88,0,0,1-3.25,8.77,10.54,10.54,0,0,1-8.07,3.49c-.66,0-2.49,0-5.49,0-.56,0-1.4,0-2.53,0s-2-.05-2.54-.05c-.34,0-.5-.14-.5-.4,0-1.26,0-3.16.14-5.69s.15-4.42.15-5.68-.05-3.3-.15-5.93-.14-4.6-.14-5.91c0-.24.16-.38.5-.43C39.8,38,41.14,38,43,38q5.3,0,6.86.16a13.14,13.14,0,0,1,6.39,2.06,10.5,10.5,0,0,1,3.42,4.34A12.91,12.91,0,0,1,60.87,50Zm-6.59,0a6.67,6.67,0,0,0-1.73-4.75,6,6,0,0,0-4.65-1.91c-1.77,0-2.65.23-2.65.7q0,1,0,3.06c0,1.36,0,2.38,0,3.05s0,1.67,0,3,0,2.35,0,3c0,.5.92.74,2.75.74a5.86,5.86,0,0,0,4.68-2A7.34,7.34,0,0,0,54.28,50Z"/><path class="cls-1" d="M84.05,62c0,.08-.12.14-.34.18a32.86,32.86,0,0,1-3.29.1c-1.5,0-2.53,0-3.06-.1a2,2,0,0,1-.43-.09c-.07,0-.15-.15-.24-.34-.18-.45-.43-1.12-.76-2q-.68-1.72-2.1-5.08a1.54,1.54,0,0,0-1.43-.74c.35,0-.25,0-1.77,0-.17,0-.26.29-.26.88,0,.78.07,1.94.22,3.49s.21,2.71.21,3.49c0,.2,0,.31-.15.35l-.49,0c-.67,0-1.73.07-3.16.07a25,25,0,0,1-3-.1c-.33-.07-.5-.25-.5-.54,0-1.26.06-3.16.18-5.71s.18-4.46.18-5.73q0-7.28-.33-11.36v-.24q0-.28.54-.39c.37-.07,2.13-.14,5.26-.21,2.12,0,3.81-.07,5.07-.07a10.67,10.67,0,0,1,6.4,1.78,6.64,6.64,0,0,1,2.81,5.76,9.21,9.21,0,0,1-.73,4,8.16,8.16,0,0,1-2.66,2.91c-.27.18-.4.35-.4.51L82,57.19A31.68,31.68,0,0,1,84.05,62ZM76.82,46.54a3.1,3.1,0,0,0-1.37-2.91A7,7,0,0,0,72.11,43c-1.09,0-1.67.17-1.74.5a30,30,0,0,0-.1,3.37c0,.27,0,.66,0,1.17s0,.91,0,1.16c0,0,.19.11.55.17a15.66,15.66,0,0,0,2.21.15C75.57,49.53,76.82,48.54,76.82,46.54Z"/><path class="cls-1" d="M103.61,56.79a23.19,23.19,0,0,1-.29,2.72,10.65,10.65,0,0,1-.55,2.57.66.66,0,0,1-.57.32,3.21,3.21,0,0,1-.51,0q-1.26-.16-7.33-.17l-3.94,0H86.49c-.38,0-.57-.17-.57-.5,0-1.29.08-3.22.22-5.79s.21-4.51.21-5.79-.06-3.75-.2-7.32c0-.91-.1-2.28-.19-4.11l0-.24c0-.26.12-.39.43-.39.85,0,2.13,0,3.83.07s3,.06,3.83.06,2.1,0,3.78-.06,3-.07,3.79-.07c.6,0,.94.22,1,.67q.09.39.27,2.4c.12,1.33.18,2.15.18,2.43a.32.32,0,0,1-.35.36h-.36c-3.05-.26-5.79-.38-8.22-.38-.61,0-1,.14-1.12.43a5.1,5.1,0,0,0-.09,1.32,2.42,2.42,0,0,0,.35,1.55,1.47,1.47,0,0,0,1.12.33l.67,0c.33,0,.61,0,.82,0,1.45,0,2.91,0,4.39-.12l.95-.09a7.54,7.54,0,0,1,.93-.07.36.36,0,0,1,.41.4,25.91,25.91,0,0,0-.31,2.63c-.09.92-.14,1.84-.14,2.75,0,.23-.16.35-.5.35l-1.54-.18c-.66-.06-2.15-.1-4.48-.1H93.79c-.47,0-.75.12-.83.35,0,.05,0,.41,0,1.06a4.88,4.88,0,0,0,.18,1.69c.19.43.93.69,2.2.77h2.51c.61,0,1.51,0,2.71-.16s2.1-.16,2.69-.16C103.49,56.18,103.61,56.38,103.61,56.79Z"/><path class="cls-1" d="M128.6,61.72c0,.2-.15.35-.44.43a20.38,20.38,0,0,1-3.2.13,22.34,22.34,0,0,1-3.16-.13.93.93,0,0,1-.74-.78,6.79,6.79,0,0,0-.91-2.65,38.15,38.15,0,0,0-4.61-.12,13,13,0,0,0-3.12.16,4.75,4.75,0,0,0-.65,1.84c-.22.95-.49,1.47-.79,1.55a30,30,0,0,1-3.93.13c-1.75,0-2.63-.16-2.63-.5s1.3-4,3.89-11c2.81-7.6,4.33-11.79,4.58-12.54q.19-.66.48-.66c.31,0,.79,0,1.43.09s1.14.09,1.46.09.76,0,1.37-.07,1.05-.06,1.35-.06.42.19.6.57q.84,1.82,4.92,12.39T128.6,61.72ZM116.4,46c-.25.51-.65,1.6-1.23,3.29a18.84,18.84,0,0,0-.93,3.15c0,.2.35.32,1,.34.35,0,.94,0,1.75,0s1.18-.09,1.26-.27a.78.78,0,0,0,0-.24,16.48,16.48,0,0,0-.79-3.13A23.56,23.56,0,0,0,116.4,46Z"/><path class="cls-1" d="M156,61.61c0,.36-.16.54-.49.54h-6.1c-.33,0-.49-.2-.49-.61,0-1.15,0-2.89.12-5.21s.13-4,.13-5.21c0-.34,0-.51-.15-.54a47.49,47.49,0,0,0-2.31,5.32c-.82,2-1.65,4.08-2.47,6.11-.12.26-.26.42-.43.46s-.29,0-.69,0c-.6,0-1-.11-1.07-.34-.62-1.27-1.43-3.1-2.44-5.51s-1.89-4.39-2.43-5.52a.48.48,0,0,0-.15-.19.82.82,0,0,0-.12.5c0,1.12,0,2.81.08,5.06s.09,3.93.09,5c0,.41-.16.61-.48.61h-5.75c-.23,0-.37,0-.42-.11a.76.76,0,0,1-.08-.39q0-1.87.18-5.64c.12-2.5.18-4.38.18-5.63s-.06-3.83-.17-7.49c0-1-.06-2.37-.16-4.25v-.29c0-.23.23-.34.72-.34s1.58,0,2.84-.06,2.21-.06,2.84-.06c.12,0,.3.24.53.72l5,11c.35.74.65,1.12.89,1.12s.4-.43.81-1.29q1.74-3.61,5.14-10.9c.2-.44.41-.67.64-.67s.83,0,1.51.06,1.17,0,1.52,0,.72,0,1.31-.09,1-.09,1.32-.09.52.14.52.42q0,2-.15,6.06t-.15,6.07c0,1.25.06,3.12.16,5.62S156,60.37,156,61.61Z"/><path class="cls-1" d="M191.1,61.61q0,.36-.15.45a1.75,1.75,0,0,1-.48.09c-.7.06-1.69.1-3,.1a27.87,27.87,0,0,1-3.18-.1c-.31-.07-.47-.23-.47-.47,0-.9,0-2.27.13-4.09s.13-3.17.13-4.08c0-.45-.13-.71-.38-.78a33.13,33.13,0,0,0-4.16-.13,33.88,33.88,0,0,0-4.2.13c-.25.06-.38.32-.38.78q0,1.34.09,4c0,1.78.08,3.12.08,4a.54.54,0,0,1-.46.61,30.14,30.14,0,0,1-3.24.1,27.53,27.53,0,0,1-3-.1.52.52,0,0,1-.5-.54c0-1.24.07-3.11.18-5.61s.19-4.37.19-5.62-.06-3.33-.18-6-.17-4.66-.17-6a.32.32,0,0,1,.36-.37c.36,0,.89,0,1.61.05s1.25,0,1.61,0,.92,0,1.66,0,1.29-.05,1.66-.05c.2,0,.29.1.29.31,0,.86-.06,2.14-.19,3.86s-.19,3-.19,3.86c0,.4.11.64.33.71a34.43,34.43,0,0,0,4.41.13,34.48,34.48,0,0,0,4.26-.13c.28-.07.42-.31.42-.71,0-.83,0-2.07-.12-3.74s-.12-2.92-.12-3.76c0-.36.14-.53.43-.53s.84,0,1.52.05,1.19,0,1.54,0,.84,0,1.52,0,1.2-.05,1.54-.05.5.13.5.41q0,2-.16,6t-.17,6c0,1.25.06,3.12.18,5.62S191.1,60.37,191.1,61.61Z"/><path class="cls-1" d="M218.17,50.1a12.59,12.59,0,0,1-3.43,9,12.41,12.41,0,0,1-17.67,0,12.56,12.56,0,0,1-3.44-9,12.64,12.64,0,0,1,3.44-9,12.29,12.29,0,0,1,17.64,0A12.66,12.66,0,0,1,218.17,50.1Zm-6.52,0a6.44,6.44,0,0,0-1.57-4.39,5.27,5.27,0,0,0-4.18-1.89,5.21,5.21,0,0,0-4.11,2,6.46,6.46,0,0,0-1.64,4.35,6.39,6.39,0,0,0,1.54,4.39,5.55,5.55,0,0,0,8.34-.1A6.38,6.38,0,0,0,211.65,50.07Z"/><path class="cls-1" d="M246.39,61.61c0,.36-.17.54-.5.54H239.8c-.34,0-.5-.2-.5-.61,0-1.15,0-2.89.13-5.21s.13-4,.13-5.21c0-.34-.05-.51-.16-.54a51.55,51.55,0,0,0-2.3,5.32L234.62,62c-.12.26-.26.42-.43.46s-.29,0-.69,0c-.6,0-.95-.11-1.07-.34-.62-1.27-1.43-3.1-2.44-5.51s-1.89-4.39-2.43-5.52a.48.48,0,0,0-.15-.19.82.82,0,0,0-.12.5c0,1.12,0,2.81.08,5.06s.09,3.93.09,5c0,.41-.16.61-.48.61h-5.75c-.23,0-.37,0-.42-.11a.76.76,0,0,1-.08-.39q0-1.87.18-5.64c.12-2.5.18-4.38.18-5.63s-.05-3.83-.17-7.49c0-1-.06-2.37-.15-4.25l0-.29c0-.23.23-.34.72-.34s1.58,0,2.84-.06,2.21-.06,2.84-.06c.13,0,.3.24.53.72l5,11c.35.74.65,1.12.89,1.12s.4-.43.81-1.29q1.74-3.61,5.15-10.9c.19-.44.4-.67.63-.67s.84,0,1.51.06,1.18,0,1.52,0,.73,0,1.32-.09,1-.09,1.31-.09.52.14.52.42q0,2-.15,6.06t-.14,6.07c0,1.25,0,3.12.15,5.62S246.39,60.37,246.39,61.61Z"/><path class="cls-1" d="M267.21,56.79a21.74,21.74,0,0,1-.3,2.72,10.15,10.15,0,0,1-.55,2.57.63.63,0,0,1-.57.32,3.21,3.21,0,0,1-.51,0q-1.26-.16-7.33-.17l-3.94,0h-3.93c-.37,0-.56-.17-.56-.5q0-1.93.21-5.79t.22-5.79q0-2-.21-7.32c0-.91-.1-2.28-.19-4.11l0-.24c0-.26.13-.39.43-.39.85,0,2.13,0,3.83.07s3,.06,3.83.06,2.1,0,3.79-.06,2.94-.07,3.78-.07c.6,0,.94.22,1,.67,0,.26.14,1.06.26,2.4s.18,2.15.18,2.43-.11.36-.34.36H266c-3.06-.26-5.8-.38-8.23-.38-.61,0-1,.14-1.12.43a5.94,5.94,0,0,0-.08,1.32,2.43,2.43,0,0,0,.34,1.55,1.48,1.48,0,0,0,1.12.33l.67,0c.33,0,.61,0,.83,0,1.44,0,2.9,0,4.39-.12l.94-.09a7.54,7.54,0,0,1,.93-.07c.28,0,.41.13.41.4a25.91,25.91,0,0,0-.31,2.63c-.09.92-.13,1.84-.13,2.75,0,.23-.17.35-.5.35l-1.55-.18c-.66-.06-2.15-.1-4.47-.1h-1.83c-.47,0-.74.12-.83.35,0,.05,0,.41,0,1.06a5.24,5.24,0,0,0,.17,1.69c.2.43.93.69,2.2.77h2.51c.61,0,1.52,0,2.71-.16s2.1-.16,2.7-.16C267.08,56.18,267.21,56.38,267.21,56.79Z"/><path class="cls-2" d="M267.21,69H38.49a1.41,1.41,0,0,1,0-2.82H267.21a1.41,1.41,0,1,1,0,2.82Z"/></svg>