<?xml version="1.0" encoding="utf-8" ?>
<svg xmlns="http://www.w3.org/2000/svg" xmlns:xlink="http://www.w3.org/1999/xlink" width="512" height="512">
	<path fill="white" transform="scale(0.5 0.5)" d="M-0 -0L1024 0L1024 1024L-0 1024L0 -0Z"/>
	<path fill="#707070" transform="scale(0.5 0.5)" d="M498.573 34.2212L499.304 34.1828C521.876 33.0593 544.883 34.7262 567.28 37.3977C642.703 46.3939 716.272 73.0357 779.069 116.023C796.659 128.064 813.604 141.848 829.37 156.178C889.752 211.057 934.76 282.489 960.205 359.828L969.198 389.589C977.171 421.238 981.411 453.513 982.956 486.083C985.415 537.951 978.992 590.644 964.478 640.5C959.238 658.499 952.37 676.298 944.876 693.471C924.174 740.914 895.865 785.75 860.97 824.036C845.443 841.073 828.958 857.345 811.15 872.004C761.974 912.486 702.43 943.897 641 960.858C603.255 971.279 564.647 976.529 525.605 978.345L524.922 978.372C507.976 979.015 490.905 978.014 474.023 976.623C369.082 967.981 268.767 923.747 191.75 851.853C120.857 785.678 68.8556 697.249 49.75 601.81C44.1979 574.076 41.6211 546.239 40.6389 518.004C36.3496 394.704 83.6172 273.021 167.532 183.106C233.803 112.095 322.586 62.9652 417.663 43.3916C444.237 37.9209 471.48 35.1639 498.573 34.2212Z"/>
	<path fill="white" transform="scale(0.5 0.5)" d="M494.718 72.2845L496.32 72.18C527.398 70.6268 558.929 73.3847 589.5 78.9462C645.907 89.2076 700.833 110.263 748.989 141.598C767.303 153.516 784.734 167.342 800.966 181.95C861.438 236.372 906.682 309.383 928.75 387.731C938.205 421.299 943.38 455.396 945.167 490.172C946.836 522.64 943.941 555.616 937.82 587.503C923.299 663.151 889.061 735.468 837.271 792.821C804.33 829.3 766.508 860.945 723.665 885.201C664.091 918.929 597.071 936.527 528.932 939.952L524.907 940.098C461.438 942.212 395.28 929.218 337.266 903.371C293.441 883.846 252.282 856.284 217.297 823.499C134.099 745.534 82.1072 636.88 78.5971 522.319C75.057 406.782 117.182 292.88 196.687 208.721C253.701 148.37 325.106 106.142 405.5 85.3655C434.653 77.8312 464.602 73.136 494.718 72.2845Z"/>
	<path fill="#707070" transform="scale(0.5 0.5)" d="M505.051 234.217C534.977 231.671 569.923 242.301 593.25 261.135C600.178 266.729 606.864 272.515 612.827 279.147C632.225 300.719 644.577 327.799 647.585 356.68C651.276 392.118 639.928 427.629 617.565 455.157C598.401 478.748 571.059 495.933 541.327 502.593C534.448 504.134 527.375 504.743 520.371 505.466C509.83 505.7 499.351 505.531 488.942 503.651C466.282 499.557 441.992 488.571 424.621 473.373C397.343 449.506 378.974 416.488 376.473 380.027C374.025 344.338 385.257 308.031 409.053 281.007C433.949 252.734 467.509 236.523 505.051 234.217Z"/>
	<path fill="#707070" transform="scale(0.5 0.5)" d="M587.267 520.868C593.323 521.804 599.833 524.375 605.707 526.208C647.871 539.363 686.093 564.58 714.489 598.322C735.325 623.081 750.068 655.766 754.661 687.793C755.326 692.429 756.599 698.093 756.141 702.74L755.908 705.309C755.018 714.517 748.975 721.762 742.054 727.436C693.74 767.05 578.661 777.004 517.202 777.438C486.678 777.654 456.463 775.77 426.119 772.616C412.383 771.491 398.489 769.25 384.935 766.815C368.274 763.82 351.352 760.189 335.208 755.054C313.317 748.092 283.327 736.892 272.196 715.025C270.883 712.447 269.763 709.655 269.401 706.768C268.847 702.353 269.61 697.484 270.096 693.085C271.377 681.486 273.434 669.879 276.996 658.75C290.355 617.015 317.735 582.664 353.563 557.867C362.482 551.694 372.043 546.399 381.673 541.43C397.599 533.213 414.121 527.48 431.383 522.778C432.293 522.53 435.877 521.188 436.63 521.357C438.817 521.845 441.697 523.708 443.84 524.631C449.946 527.262 456.108 529.765 462.452 531.768C503.348 544.682 549.26 540.581 587.267 520.868Z"/>
</svg>
