<svg id="Layer_1" data-name="Layer 1" xmlns="http://www.w3.org/2000/svg" viewBox="0 0 450 441.82"><defs><style>.cls-1{fill:#6c00ff;}</style></defs><path class="cls-1" d="M329.82,122.55a21.12,21.12,0,0,1,29.87,0l.05,0,111,111.24a2.47,2.47,0,0,0,4.27-2,66.48,66.48,0,0,0-1-8.93,22.16,22.16,0,0,0-6.67-12.53L359.74,102.56a21.12,21.12,0,0,0-29.88,0l-.05,0L145.53,286.78a18.8,18.8,0,0,1-26.58,0,18.14,18.14,0,0,1-2.21-2.66,19.53,19.53,0,0,1,2.93-24.66L334,45.17C218.34-.93,87.19,55.47,41.08,171.14s10.3,246.83,126,292.93q9.31,3.72,18.94,6.59a6.67,6.67,0,0,0,8.22-4.61,6.77,6.77,0,0,0,.24-2.05V268.65a25.1,25.1,0,0,1,7.47-17.87Z" transform="translate(-25 -29.09)"/><path class="cls-1" d="M325.34,317.21a57.53,57.53,0,0,1-14.52,39.18A47.09,47.09,0,0,1,274.76,372H238.93c-5.05,0-8.94-.23-11.35-.23-1.52,0-2.23-.62-2.23-1.78,0-5.63,0-14.12.62-25.43s.67-19.74.67-25.37-.22-14.75-.67-26.5-.62-20.55-.62-26.4c0-1.08.71-1.7,2.23-1.92,3.62-.76,9.61-.76,17.92-.76q23.67,0,30.65.71a58.76,58.76,0,0,1,28.55,9.2A47,47,0,0,1,320,292.91,57.77,57.77,0,0,1,325.34,317.21Zm-29.45,0A29.75,29.75,0,0,0,288.16,296a26.8,26.8,0,0,0-20.77-8.54c-7.91,0-11.84,1-11.84,3.13v54.11c0,2.23,4.11,3.3,12.29,3.3a26.16,26.16,0,0,0,20.91-8.93A32.74,32.74,0,0,0,295.89,317.21Z" transform="translate(-25 -29.09)"/><path class="cls-1" d="M450,468.11c0,1-.22,1.68-.65,1.94a7.29,7.29,0,0,1-2.07.39c-3,.26-7.29.43-12.95.43a120.8,120.8,0,0,1-13.72-.43c-1.34-.3-2-1-2-2,0-3.88,0-9.8.56-17.65s.56-13.68.56-17.61c0-1.94-.56-3.06-1.64-3.37a143.37,143.37,0,0,0-17.95-.56,146.32,146.32,0,0,0-18.13.56c-1.08.26-1.64,1.39-1.64,3.37q0,5.79.39,17.26c0,7.69.35,13.47.35,17.27a2.33,2.33,0,0,1-2,2.63h0a130.49,130.49,0,0,1-14,.43,119.05,119.05,0,0,1-12.95-.43A2.25,2.25,0,0,1,350,468h0c0-5.35.3-13.42.78-24.21s.82-18.86.82-24.26-.26-14.37-.78-25.89-.73-20.11-.73-25.9a1.38,1.38,0,0,1,1.13-1.59,1.48,1.48,0,0,1,.42,0c1.56,0,3.84,0,6.95.21s5.4,0,7,0h7.16c3.2,0,5.57-.21,7.17-.21.86,0,1.25.43,1.25,1.33,0,3.71-.26,9.24-.82,16.66s-.82,12.95-.82,16.66c0,1.73.47,2.76,1.42,3.07a149.42,149.42,0,0,0,19,.56,150.37,150.37,0,0,0,18.38-.56c1.21-.31,1.81-1.34,1.81-3.07,0-3.58,0-8.93-.51-16.14s-.52-12.6-.52-16.23c0-1.55.6-2.28,1.85-2.28s3.63,0,6.56.21a65.3,65.3,0,0,0,6.65,0h6.56c2.94,0,5.18-.21,6.65-.21s2.16.56,2.16,1.76q0,8.64-.7,25.9t-.73,25.9q0,8.08.78,24.25C449.4,454.73,450,462.76,450,468.11Z" transform="translate(-25 -29.09)"/></svg>